<?xml version="1.0" encoding="UTF-8" standalone="no"?>
<!-- Created with Inkscape (http://www.inkscape.org/) -->

<svg
   width="158.5313mm"
   height="31.186937mm"
   viewBox="0 0 158.5313 31.186937"
   version="1.1"
   id="svg1"
   sodipodi:docname="chorus.svg"
   inkscape:export-filename="chorus.svg"
   inkscape:export-xdpi="96"
   inkscape:export-ydpi="96"
   inkscape:version="1.4 (unknown)"
   xmlns:inkscape="http://www.inkscape.org/namespaces/inkscape"
   xmlns:sodipodi="http://sodipodi.sourceforge.net/DTD/sodipodi-0.dtd"
   xmlns="http://www.w3.org/2000/svg"
   xmlns:svg="http://www.w3.org/2000/svg">
  <sodipodi:namedview
     id="namedview1"
     pagecolor="#ffffff"
     bordercolor="#000000"
     borderopacity="0.25"
     inkscape:showpageshadow="2"
     inkscape:pageopacity="0.0"
     inkscape:pagecheckerboard="0"
     inkscape:deskcolor="#d1d1d1"
     inkscape:document-units="mm"
     showgrid="false"
     inkscape:zoom="1.3451865"
     inkscape:cx="299.5867"
     inkscape:cy="59.09961"
     inkscape:window-width="1354"
     inkscape:window-height="714"
     inkscape:window-x="0"
     inkscape:window-y="0"
     inkscape:window-maximized="1"
     inkscape:current-layer="layer1" />
  <defs
     id="defs1">
    <linearGradient
       id="swatch7">
      <stop
         style="stop-color:#000000;stop-opacity:1;"
         offset="0"
         id="stop7" />
    </linearGradient>
  </defs>
  <g
     id="layer1"
     transform="translate(-21.815202,-93.216891)">
    <path
       d="m 34.667623,123.87258 c 8.5344,0 12.852399,-3.6576 12.852399,-11.0236 v -2.54 H 36.699623 v 4.4704 h -4.064 v -11.9634 h 4.064 v 4.445 h 10.820399 v -2.4892 c 0,-7.366002 -4.317999,-11.023602 -12.852399,-11.023602 -8.4836,0 -12.8524,3.6576 -12.8524,11.023602 v 8.0772 c 0,7.366 4.3688,11.0236 12.8524,11.0236 z"
       id="text2"
       style="font-weight:800;font-size:50.8px;font-family:'Pressio TEST';-inkscape-font-specification:'Pressio TEST Ultra-Bold';fill:#2a2a2a;stroke-width:0.264583"
       aria-label="c" />
    <path
       d="m 43.102896,139.24371 h 9.619847 v -18.17835 h 3.613088 v 18.17835 h 9.619847 v -18.15576 c 0,-5.37447 -2.122689,-8.08429 -6.77454,-8.08429 -3.071125,0 -5.509959,1.67105 -6.458395,4.4712 v -12.0361 h -9.619847 z"
       id="text3"
       style="font-weight:800;font-size:45.1636px;font-family:'Pressio TEST';-inkscape-font-specification:'Pressio TEST Ultra-Bold';fill:#2a2a2a;stroke-width:0.235226"
       transform="scale(1.1247993,0.8890475)"
       aria-label="h" />
    <path
       d="m 88.77404,123.32111 c 8.609327,0 12.96524,-3.66409 12.96524,-11.146 v -8.09687 c 0,-7.481915 -4.355913,-11.146004 -12.96524,-11.146004 -8.609328,0 -12.965238,3.664089 -12.965238,11.146004 v 8.09687 c 0,7.48191 4.35591,11.146 12.965238,11.146 z m -2.04984,-9.17303 v -12.06843 h 4.09968 v 12.06843 z"
       id="text4"
       style="font-weight:800;font-size:51.246px;font-family:'Pressio TEST';-inkscape-font-specification:'Pressio TEST Ultra-Bold';fill:#2a2a2a;stroke-width:0.266906"
       transform="scale(0.99129641,1.00878)"
       aria-label="o" />
    <path
       d="m 103.63249,122.14622 h 11.01346 v -20.81183 h 3.56774 v 7.62669 h 11.06517 v -7.65254 c 0,-6.153064 -1.91313,-9.203742 -7.23889,-9.203742 -3.56774,0 -6.30818,1.86143 -7.39402,5.118934 v -4.550164 h -11.01346 z"
       id="text5"
       style="font-weight:800;font-size:51.7064px;font-family:'Pressio TEST';-inkscape-font-specification:'Pressio TEST Ultra-Bold';fill:#2a2a2a;stroke-width:0.269304"
       transform="scale(0.98247057,1.0178422)"
       aria-label="r" />
    <path
       d="m 135.798,123.87256 c 3.4036,0 5.9944,-1.8288 7.0612,-5.0292 v 4.4196 h 10.8204 V 94.306963 h -10.8204 v 20.472397 h -4.064 V 94.306963 h -10.8204 v 20.472397 c 0,6.0452 2.8448,9.0932 7.8232,9.0932 z"
       id="text6"
       style="font-weight:800;font-size:50.8px;font-family:'Pressio TEST';-inkscape-font-specification:'Pressio TEST Ultra-Bold';fill:#2a2a2a;stroke-width:0.264583"
       aria-label="u" />
    <path
       d="m 167.4941,123.34126 c 8.5344,0 12.8524,-3.6576 12.8524,-11.0236 v -3.9116 l -14.8844,-3.7592 v -2.3622 h 4.064 v 2.3622 h 10.8204 v -0.4064 c 0,-7.366001 -4.318,-11.023601 -12.8524,-11.023601 -8.5344,0 -12.8524,3.6576 -12.8524,11.023601 v 3.9116 l 14.8844,3.7592 v 2.3368 h -4.064 v -2.3368 h -10.8204 v 0.4064 c 0,7.366 4.318,11.0236 12.8524,11.0236 z"
       id="text7"
       style="font-weight:800;font-size:50.8px;font-family:'Pressio TEST';-inkscape-font-specification:'Pressio TEST Ultra-Bold';fill:#2a2a2a;stroke-width:0.264583"
       aria-label="s" />
  </g>
</svg>
